# Blender v2.76 (sub 0) OBJ File: 'cube3.blend'
# www.blender.org
mtllib cube3.mtl
o Cube
v -1.000000 0.353553 0.353553
v -1.000000 -0.353553 0.353553
v -1.000000 -0.353553 -0.353553
v -2.000000 -0.000000 -0.000000
v -1.000000 0.353553 -0.353553
v 1.000000 -0.353553 -0.353553
v 1.000000 -0.353553 0.353553
v 1.000000 0.353553 0.353553
v 2.000000 -0.000000 0.000000
v 1.000000 0.353553 -0.353553
v -0.353553 -0.353553 -1.000000
v 0.353553 -0.353553 -1.000000
v 0.353553 0.353553 -1.000000
v -0.000000 -0.000000 -2.000000
v -0.353553 0.353553 -1.000000
v 0.353553 0.353553 1.000000
v 0.353553 -0.353553 1.000000
v -0.353553 -0.353553 1.000000
v -0.000000 -0.000000 2.000000
v -0.353553 0.353553 1.000000
v -0.353553 -1.000000 -0.353553
v -0.353553 -1.000000 0.353553
v 0.353553 -1.000000 0.353553
v -0.000000 -2.000000 0.000000
v 0.353553 -1.000000 -0.353553
v -0.353553 1.000000 -0.353553
v 0.353553 1.000000 -0.353553
v 0.353553 1.000000 0.353553
v 0.000000 2.000000 0.000000
v -0.353553 1.000000 0.353553
v 1.000000 -1.000000 -1.000000
v 1.000000 -1.000000 1.000000
v -1.000000 -1.000000 1.000000
v -1.000000 -1.000000 -1.000000
v 1.000000 1.000000 -0.999999
v 0.999999 1.000000 1.000001
v -1.000000 1.000000 1.000000
v -1.000000 1.000000 -1.000000
vn -0.333300 0.000000 -0.942800
vn -0.333300 0.000000 0.942800
vn -0.333300 0.942800 0.000000
vn -0.333300 -0.942800 -0.000000
vn -1.000000 0.000000 -0.000000
vn 0.333300 0.942800 -0.000000
vn 0.333300 -0.942800 0.000000
vn 0.333300 0.000000 -0.942800
vn 0.333300 0.000000 0.942800
vn 1.000000 0.000000 0.000000
vn -0.000000 0.942800 -0.333300
vn 0.000000 -0.942800 -0.333300
vn -0.942800 0.000000 -0.333300
vn 0.942800 0.000000 -0.333300
vn 0.000000 0.000000 -1.000000
vn -0.942800 0.000000 0.333300
vn 0.942800 -0.000000 0.333300
vn 0.000000 0.942800 0.333300
vn -0.000000 -0.942800 0.333300
vn -0.000000 -0.000000 1.000000
vn 0.942800 -0.333300 -0.000000
vn -0.942800 -0.333300 0.000000
vn 0.000000 -0.333300 -0.942800
vn 0.000000 -0.333300 0.942800
vn 0.000000 -1.000000 0.000000
vn -0.000000 0.333300 0.942800
vn 0.000000 0.333300 -0.942800
vn -0.942800 0.333300 0.000000
vn 0.942800 0.333300 0.000000
vn 0.000000 1.000000 0.000000
usemtl Material
s off
f 3//1 4//1 5//1
f 1//2 4//2 2//2
f 5//3 4//3 1//3
f 2//4 4//4 3//4
f 3//5 34//5 33//5 2//5
f 8//6 9//6 10//6
f 6//7 9//7 7//7
f 10//8 9//8 6//8
f 7//9 9//9 8//9
f 7//10 32//10 31//10 6//10
f 13//11 14//11 15//11
f 11//12 14//12 12//12
f 15//13 14//13 11//13
f 12//14 14//14 13//14
f 11//15 12//15 31//15 34//15
f 18//16 19//16 20//16
f 16//17 19//17 17//17
f 20//18 19//18 16//18
f 17//19 19//19 18//19
f 18//20 33//20 32//20 17//20
f 23//21 24//21 25//21
f 21//22 24//22 22//22
f 25//23 24//23 21//23
f 22//24 24//24 23//24
f 21//25 22//25 33//25 34//25
f 28//26 29//26 30//26
f 26//27 29//27 27//27
f 30//28 29//28 26//28
f 27//29 29//29 28//29
f 28//30 36//30 35//30 27//30
f 21//25 34//25 31//25 25//25
f 26//30 27//30 35//30 38//30
f 10//10 6//10 31//10 35//10
f 16//20 17//20 32//20 36//20
f 1//5 2//5 33//5 37//5
f 15//15 11//15 34//15 38//15
f 13//15 35//15 31//15 12//15
f 15//15 38//15 35//15 13//15
f 8//10 36//10 32//10 7//10
f 8//10 10//10 35//10 36//10
f 20//20 37//20 33//20 18//20
f 20//20 16//20 36//20 37//20
f 5//5 38//5 34//5 3//5
f 5//5 1//5 37//5 38//5
f 30//30 37//30 36//30 28//30
f 26//30 38//30 37//30 30//30
f 23//25 25//25 31//25 32//25
f 22//25 23//25 32//25 33//25
